<svg height="16" viewBox="0 0 4.2333332 4.2333335" width="16" xmlns="http://www.w3.org/2000/svg"><g stroke-width=".264583"><g fill="#f95"><rect height=".631045" ry=".315523" width="2.684049" x="1.297587" y=".21132"/><rect height=".026663" ry=".013331" width=".088876" x="1.475339" y=".2469"/><rect height=".631045" ry=".315523" width="2.684049" x="1.302387" y="1.25633"/><rect height=".631045" ry=".315523" width="2.684049" x="1.303364" y="2.34248"/><rect height=".026663" ry=".013331" width=".088876" x="1.481116" y="2.37806"/><rect height=".631045" ry=".315523" width="2.684049" x="1.308164" y="3.38749"/></g><g fill="none" stroke="#f95" transform="translate(0 -292.76665)"><path d="m.16886407 294.92029c.16064023-.0562.32598438-.1045.41771638-.27552.1301662-.2074.1421185-.28671.15997647-.6399.0344915-.20562-.0198597-.4232.0177752-.63102.0986942-.36692.38216601-.27551.38216601-.27551"/><path d="m.16886407 294.92029c.16064023.0562.32598437.1045.41771639.27552.13016619.2074.14211851.28671.15997645.6399.0344915.20562-.0198597.4232.0177752.63102.0986942.36692.38216609.27551.38216609.27551"/></g></g></svg>